<?xml version="1.0" standalone="no"?>
<!DOCTYPE svg PUBLIC "-//W3C//DTD SVG 20010904//EN"
 "http://www.w3.org/TR/2001/REC-SVG-20010904/DTD/svg10.dtd">
<svg version="1.0" xmlns="http://www.w3.org/2000/svg"
 width="700.000000pt" height="700.000000pt" viewBox="0 0 700.000000 700.000000"
 preserveAspectRatio="xMidYMid meet">
<metadata>
Created by potrace 1.11, written by Peter Selinger 2001-2013
</metadata>
<g transform="translate(0.000000,700.000000) scale(0.100000,-0.100000)"
fill="#000000" stroke="none">
<path d="M135 6990 c-77 -8 -89 -14 -111 -56 -18 -34 -19 -129 -19 -3432 0
-3718 -5 -3445 59 -3480 29 -16 248 -17 3436 -17 3188 0 3407 1 3436 17 64 35
59 -238 59 3478 0 2753 -2 3401 -13 3426 -7 16 -27 39 -45 50 -31 19 -84 19
-3387 19 -1845 1 -3382 -2 -3415 -5z m2635 -859 c13 -1 15 -74 13 -603 -1
-332 -2 -609 -2 -615 -1 -10 -126 -13 -590 -13 l-590 0 1 612 c0 337 1 615 3
618 2 4 1100 5 1165 1z m1290 -613 l0 -618 -590 0 -590 0 -1 23 c-1 52 2 1068
4 1132 l2 70 135 5 c74 3 339 5 588 5 l452 0 0 -617z m524 168 c121 -127 241
-251 266 -276 25 -25 135 -140 245 -255 110 -114 211 -219 225 -232 l25 -23
-590 0 -591 0 2 493 c1 270 3 544 3 607 l1 115 96 -100 c53 -55 196 -203 318
-329z m-1804 -921 c3 -183 -2 -1190 -6 -1194 -6 -6 -1154 -7 -1162 -1 -10 7
-12 1214 -2 1220 4 3 270 5 589 5 l581 0 0 -30z m2541 26 c15 -1 17 -54 16
-611 l0 -610 -586 2 -586 3 0 605 c-1 333 2 607 6 610 6 4 1098 5 1150 1z
m-2545 -1333 c5 -6 9 -1019 5 -1200 l-1 -28 -589 0 -589 0 -1 618 0 617 584 0
c321 0 587 -3 591 -7z m1282 -610 l2 -618 -590 0 c-555 0 -590 1 -590 18 -1
24 -1 1184 -1 1202 1 13 73 15 589 15 l587 0 3 -617z m273 440 c213 -223 202
-211 414 -433 205 -214 198 -207 422 -441 83 -87 155 -162 159 -166 4 -5 -256
-8 -577 -8 l-584 0 0 605 c0 333 2 605 6 605 3 0 75 -73 160 -162z m-1555
-1160 c5 -6 10 -1120 5 -1216 -1 -10 -122 -12 -590 -12 l-590 1 1 617 0 617
583 0 c321 0 587 -3 591 -7z m2560 -611 l1 -607 -586 2 -586 3 -1 595 c0 327
3 600 7 606 6 7 193 10 586 10 l578 -1 1 -608z"/>
</g>
</svg>
